<svg width="400" height="400" viewBox="0 0 400 400" fill="none" xmlns="http://www.w3.org/2000/svg">
<path fill-rule="evenodd" clip-rule="evenodd" d="M253.604 76.0013C321.755 76.0044 377.012 131.257 377.012 199.409C377.012 265.434 325.148 319.358 259.943 322.66L253.604 322.816C206.132 322.816 164.94 295.994 144.298 256.691V322.816C76.145 322.816 20.8907 267.562 20.8907 199.409C20.8907 131.256 76.145 76.0013 144.298 76.0013C191.776 76.0013 232.966 102.831 253.604 142.142V76.0013ZM144.298 146.524C115.09 146.524 91.4138 170.201 91.4138 199.409C91.4138 227.862 113.882 251.05 142.045 252.231C134.448 236.217 130.197 218.311 130.197 199.409H197.183C197.183 170.201 173.506 146.524 144.298 146.524ZM200.72 199.409C200.72 228.617 224.397 252.293 253.604 252.293L256.328 252.231C284.267 250.811 306.489 227.702 306.489 199.409C306.489 170.947 284.001 147.739 255.827 146.571C263.43 162.591 267.706 180.498 267.706 199.409H200.72Z" fill="#111111"/>
</svg>
