<svg width="32" height="32" viewBox="0 0 32 32" fill="none" xmlns="http://www.w3.org/2000/svg">
<path fill-rule="evenodd" clip-rule="evenodd" d="M20.2882 6.08008C25.7403 6.08033 30.1609 10.5006 30.1609 15.9527C30.1609 21.2347 26.0118 25.5486 20.7953 25.8128L20.2882 25.8253C16.4905 25.8253 13.1951 23.6795 11.5438 20.5353V25.8253C6.09148 25.8253 1.67114 21.405 1.67114 15.9527C1.67114 10.5004 6.09148 6.08008 11.5438 6.08008C15.342 6.08008 18.6371 8.22649 20.2882 11.3713V6.08008ZM11.5438 11.7219C9.20711 11.7219 7.31299 13.616 7.31299 15.9527C7.31299 18.2289 9.11047 20.084 11.3635 20.1784C10.7557 18.8973 10.4156 17.4648 10.4156 15.9527H15.7745C15.7745 13.616 13.8804 11.7219 11.5438 11.7219ZM16.0575 15.9527C16.0575 18.2893 17.9516 20.1834 20.2882 20.1834L20.5061 20.1784C22.7413 20.0648 24.519 18.2161 24.519 15.9527C24.519 13.6758 22.72 11.8191 20.466 11.7257C21.0743 13.0073 21.4164 14.4398 21.4164 15.9527H16.0575Z" fill="#F5F5F5"/>
</svg>
