<svg width="95" height="27" viewBox="0 0 95 27" fill="none" xmlns="http://www.w3.org/2000/svg">
<path fill-rule="evenodd" clip-rule="evenodd" d="M16.5886 4.69885C21.1509 4.69906 24.8502 8.39801 24.8502 12.9605C24.8502 17.3806 21.3781 20.9905 17.0129 21.2116L16.5886 21.222C13.4105 21.222 10.6528 19.4264 9.271 16.7953V21.222C4.70843 21.222 1.0094 17.523 1.0094 12.9605C1.0094 8.39788 4.70843 4.69885 9.271 4.69885C12.4494 4.69885 15.2069 6.49502 16.5886 9.12669V4.69885ZM9.271 9.42006C7.31565 9.42007 5.73061 11.0051 5.73061 12.9605C5.73061 14.8652 7.23478 16.4176 9.12012 16.4966C8.61156 15.4246 8.32697 14.2258 8.32696 12.9605H12.8114C12.8114 11.0051 11.2263 9.42006 9.271 9.42006ZM13.0482 12.9605C13.0482 14.9158 14.6332 16.5008 16.5886 16.5008L16.7709 16.4966C18.6413 16.4016 20.1289 14.8545 20.1289 12.9605C20.1289 11.0551 18.6235 9.50138 16.7373 9.42321C17.2464 10.4957 17.5326 11.6945 17.5326 12.9605H13.0482Z" fill="#111111"/>
<path d="M37.4553 19.1205C36.5298 19.1205 35.7152 18.9084 35.0115 18.4843C34.3078 18.0505 33.7583 17.4335 33.363 16.6334C32.9678 15.8332 32.7702 14.8788 32.7702 13.7702C32.7702 12.6713 32.963 11.7217 33.3486 10.9216C33.7438 10.1118 34.2933 9.49 34.997 9.05619C35.7008 8.61274 36.525 8.39102 37.4697 8.39102C38.7422 8.39102 39.7304 8.70914 40.4341 9.34539C41.1378 9.98164 41.5957 10.8637 41.8078 11.9916L40.1738 12.0784C40.0389 11.3746 39.7496 10.8252 39.3062 10.4299C38.8627 10.025 38.2506 9.82258 37.4697 9.82258C36.8431 9.82258 36.2985 9.98164 35.8357 10.2998C35.3826 10.6179 35.026 11.071 34.7657 11.659C34.515 12.2471 34.3897 12.9508 34.3897 13.7702C34.3897 14.5896 34.515 15.2934 34.7657 15.8814C35.026 16.4695 35.3875 16.9177 35.8502 17.2262C36.3129 17.5347 36.848 17.689 37.4553 17.689C38.2843 17.689 38.9254 17.4721 39.3785 17.0382C39.8412 16.5948 40.1304 15.9875 40.2461 15.2163L41.8801 15.303C41.7548 16.0839 41.5042 16.7587 41.1282 17.3275C40.7522 17.8962 40.2558 18.3397 39.6388 18.6578C39.0218 18.9663 38.294 19.1205 37.4553 19.1205ZM44.7292 19.0627C43.9291 19.0627 43.288 18.8795 42.806 18.5132C42.3337 18.1469 42.0975 17.6311 42.0975 16.9659C42.0975 16.3008 42.2951 15.785 42.6903 15.4187C43.0952 15.0427 43.717 14.7728 44.5557 14.6089L47.2019 14.1028C47.2019 13.5051 47.0622 13.0617 46.7826 12.7725C46.503 12.4736 46.0885 12.3242 45.539 12.3242C45.0474 12.3242 44.6618 12.4351 44.3822 12.6568C44.1026 12.8689 43.9098 13.187 43.8038 13.6112L42.2276 13.5099C42.3722 12.7387 42.7289 12.1314 43.2977 11.688C43.8761 11.2445 44.6232 11.0228 45.539 11.0228C46.5802 11.0228 47.3706 11.3023 47.9105 11.8615C48.46 12.411 48.7347 13.187 48.7347 14.1896V17.1829C48.7347 17.366 48.7637 17.4962 48.8215 17.5733C48.889 17.6408 48.995 17.6745 49.1396 17.6745H49.4144V18.8892C49.3662 18.8988 49.289 18.9084 49.183 18.9181C49.077 18.9277 48.9661 18.9325 48.8504 18.9325C48.5226 18.9325 48.2383 18.8795 47.9973 18.7735C47.7659 18.6674 47.5924 18.4939 47.4767 18.2529C47.361 18.0023 47.3032 17.6697 47.3032 17.2552L47.4622 17.3275C47.3851 17.6649 47.2164 17.9637 46.9561 18.224C46.7055 18.4843 46.3825 18.6915 45.9873 18.8458C45.6017 18.9904 45.1823 19.0627 44.7292 19.0627ZM44.9751 17.848C45.4378 17.848 45.833 17.7613 46.1608 17.5877C46.4886 17.4046 46.744 17.1539 46.9272 16.8358C47.1104 16.5177 47.2019 16.1562 47.2019 15.7513V15.2596L44.9461 15.6934C44.4834 15.7802 44.1557 15.92 43.9628 16.1128C43.7797 16.296 43.6881 16.5321 43.6881 16.8213C43.6881 17.1491 43.799 17.4046 44.0207 17.5877C44.2521 17.7613 44.5702 17.848 44.9751 17.848ZM52.7488 19.0627C52.0258 19.0627 51.4136 18.9518 50.9124 18.7301C50.4207 18.5084 50.0399 18.2047 49.77 17.8191C49.5001 17.4239 49.3458 16.9708 49.3073 16.4598L50.8834 16.3875C50.9606 16.8117 51.1437 17.1491 51.4329 17.3998C51.7221 17.6504 52.1608 17.7757 52.7488 17.7757C53.2308 17.7757 53.6116 17.6986 53.8912 17.5444C54.1707 17.3901 54.3105 17.1443 54.3105 16.8069C54.3105 16.6237 54.2623 16.4695 54.1659 16.3442C54.0792 16.2092 53.9056 16.0983 53.6453 16.0116C53.3851 15.9152 52.9995 15.8236 52.4885 15.7368C51.727 15.5922 51.1293 15.4235 50.6955 15.2307C50.2616 15.0379 49.9532 14.7921 49.77 14.4932C49.5868 14.1944 49.4953 13.8329 49.4953 13.4087C49.4953 12.705 49.7555 12.1314 50.2761 11.688C50.8063 11.2445 51.5679 11.0228 52.5608 11.0228C53.226 11.0228 53.7851 11.1385 54.2382 11.3698C54.6913 11.5916 55.0432 11.8952 55.2938 12.2808C55.5541 12.6568 55.718 13.081 55.7855 13.5533L54.2093 13.6401C54.1611 13.3702 54.0647 13.1388 53.9201 12.946C53.7851 12.7436 53.602 12.5893 53.3706 12.4833C53.1392 12.3676 52.8645 12.3097 52.5464 12.3097C52.0547 12.3097 51.6884 12.4061 51.4474 12.5989C51.2064 12.7918 51.0859 13.0424 51.0859 13.3509C51.0859 13.5822 51.1389 13.7702 51.2449 13.9148C51.3606 14.0594 51.5438 14.1799 51.7944 14.2763C52.0451 14.3631 52.3777 14.4402 52.7922 14.5077C53.5923 14.6427 54.2189 14.8114 54.672 15.0138C55.1251 15.2066 55.4432 15.4476 55.6264 15.7368C55.8096 16.026 55.9011 16.3779 55.9011 16.7924C55.9011 17.2744 55.7662 17.6841 55.4963 18.0215C55.2263 18.359 54.8552 18.6192 54.3828 18.8024C53.9104 18.9759 53.3658 19.0627 52.7488 19.0627ZM56.5847 18.8892V8.62238H58.1175V12.9315L57.9295 12.9026C58.0163 12.4688 58.1754 12.1169 58.4067 11.847C58.6381 11.5675 58.9225 11.3602 59.2599 11.2252C59.5973 11.0903 59.9684 11.0228 60.3733 11.0228C60.9324 11.0228 61.4048 11.1481 61.7904 11.3987C62.176 11.6398 62.4652 11.982 62.658 12.4254C62.8605 12.8689 62.9617 13.375 62.9617 13.9438V18.8892H61.4289V14.3486C61.4289 13.6545 61.3084 13.1436 61.0674 12.8159C60.836 12.4784 60.4697 12.3097 59.9684 12.3097C59.4093 12.3097 58.961 12.4881 58.6236 12.8448C58.2862 13.1918 58.1175 13.7027 58.1175 14.3776V18.8892H56.5847ZM63.9922 18.8892V11.1963H65.3949L65.4382 13.1051L65.2647 13.0472C65.3515 12.6231 65.5009 12.2615 65.713 11.9627C65.9347 11.6639 66.2046 11.4325 66.5228 11.2686C66.8409 11.1047 67.1879 11.0228 67.5639 11.0228C68.2194 11.0228 68.7545 11.2108 69.169 11.5867C69.5835 11.9531 69.8438 12.4592 69.9498 13.1051H69.704C69.7908 12.652 69.9354 12.276 70.1378 11.9772C70.3499 11.6687 70.6198 11.4325 70.9476 11.2686C71.2754 11.1047 71.6465 11.0228 72.061 11.0228C72.6009 11.0228 73.0588 11.1385 73.4348 11.3698C73.8204 11.5916 74.1096 11.9193 74.3024 12.3531C74.5048 12.7869 74.606 13.3171 74.606 13.9438V18.8892H73.0733V14.3197C73.0733 13.6545 72.9528 13.1533 72.7118 12.8159C72.4707 12.4784 72.1044 12.3097 71.6128 12.3097C71.2946 12.3097 71.0151 12.3917 70.7741 12.5556C70.5331 12.7195 70.3451 12.9556 70.2101 13.2641C70.0848 13.5726 70.0221 13.9438 70.0221 14.3776V18.8892H68.5617V14.3776C68.5617 13.722 68.4508 13.2159 68.2291 12.8592C68.017 12.4929 67.6507 12.3097 67.1301 12.3097C66.8023 12.3097 66.5179 12.3917 66.2769 12.5556C66.0456 12.7195 65.8624 12.9605 65.7275 13.2786C65.5925 13.5871 65.525 13.9534 65.525 14.3776V18.8892H63.9922ZM78.9159 19.0627C78.1639 19.0627 77.5132 18.8988 76.9637 18.571C76.4239 18.2433 76.0045 17.7757 75.7057 17.1684C75.4165 16.5611 75.2719 15.8525 75.2719 15.0427C75.2719 14.233 75.4165 13.5292 75.7057 12.9315C76.0045 12.3242 76.4239 11.8567 76.9637 11.5289C77.5036 11.1915 78.1398 11.0228 78.8725 11.0228C79.5666 11.0228 80.1787 11.1867 80.709 11.5144C81.2392 11.8326 81.6489 12.2953 81.9381 12.9026C82.2369 13.5099 82.3863 14.2426 82.3863 15.1006V15.491H76.8625C76.9011 16.2429 77.0987 16.8069 77.4554 17.1829C77.8217 17.5588 78.3134 17.7468 78.9303 17.7468C79.3834 17.7468 79.7594 17.6408 80.0582 17.4287C80.3571 17.2166 80.5643 16.9322 80.68 16.5755L82.2707 16.6767C82.0682 17.3901 81.6681 17.9685 81.0705 18.412C80.4824 18.8458 79.7642 19.0627 78.9159 19.0627ZM76.8625 14.3342H80.7668C80.7186 13.6497 80.521 13.1436 80.1739 12.8159C79.8365 12.4881 79.4027 12.3242 78.8725 12.3242C78.323 12.3242 77.8699 12.4977 77.5132 12.8448C77.1662 13.1822 76.9493 13.6786 76.8625 14.3342ZM83.0718 18.8892V11.1963H84.4745L84.5323 13.2352L84.4022 13.1918C84.5082 12.4977 84.7203 11.9916 85.0384 11.6735C85.3662 11.3554 85.8048 11.1963 86.3543 11.1963H87.0918V12.57H86.3543C85.9687 12.57 85.6458 12.6327 85.3855 12.758C85.1252 12.8833 84.9276 13.0761 84.7926 13.3364C84.6673 13.5967 84.6046 13.9341 84.6046 14.3486V18.8892H83.0718ZM90.483 19.0627C89.731 19.0627 89.0803 18.8988 88.5308 18.571C87.991 18.2433 87.5716 17.7757 87.2728 17.1684C86.9836 16.5611 86.839 15.8525 86.839 15.0427C86.839 14.233 86.9836 13.5292 87.2728 12.9315C87.5716 12.3242 87.991 11.8567 88.5308 11.5289C89.0707 11.1915 89.7069 11.0228 90.4396 11.0228C91.1337 11.0228 91.7458 11.1867 92.276 11.5144C92.8062 11.8326 93.2159 12.2953 93.5051 12.9026C93.804 13.5099 93.9534 14.2426 93.9534 15.1006V15.491H88.4296C88.4682 16.2429 88.6658 16.8069 89.0225 17.1829C89.3888 17.5588 89.8804 17.7468 90.4974 17.7468C90.9505 17.7468 91.3265 17.6408 91.6253 17.4287C91.9242 17.2166 92.1314 16.9322 92.2471 16.5755L93.8377 16.6767C93.6353 17.3901 93.2352 17.9685 92.6375 18.412C92.0495 18.8458 91.3313 19.0627 90.483 19.0627ZM88.4296 14.3342H92.3339C92.2857 13.6497 92.088 13.1436 91.741 12.8159C91.4036 12.4881 90.9698 12.3242 90.4396 12.3242C89.8901 12.3242 89.437 12.4977 89.0803 12.8448C88.7333 13.1822 88.5164 13.6786 88.4296 14.3342Z" fill="#111111"/>
</svg>
