<svg width="200" height="200" viewBox="0 0 200 200" fill="none" xmlns="http://www.w3.org/2000/svg">
<path fill-rule="evenodd" clip-rule="evenodd" d="M126.802 38.0006C160.877 38.0022 188.506 65.6287 188.506 99.7044C188.506 132.717 162.574 159.679 129.971 161.33L126.802 161.408C103.066 161.408 82.4698 147.997 72.1491 128.346V161.408C38.0724 161.408 10.4453 133.781 10.4453 99.7044C10.4453 65.6277 38.0724 38.0006 72.1491 38.0006C95.8882 38.0006 116.483 51.4157 126.802 71.071V38.0006ZM72.1491 73.2622C57.5451 73.2622 45.7069 85.1004 45.7069 99.7044C45.7069 113.931 56.9411 125.525 71.0222 126.115C67.2239 118.108 65.0984 109.155 65.0984 99.7044H98.5914C98.5914 85.1004 86.7531 73.2622 72.1491 73.2622ZM100.36 99.7044C100.36 114.308 112.198 126.147 126.802 126.147L128.164 126.115C142.134 125.405 153.244 113.851 153.244 99.7044C153.244 85.4737 142.001 73.8695 127.913 73.2856C131.715 81.2954 133.853 90.2491 133.853 99.7044H100.36Z" fill="#F5F5F5"/>
</svg>
