<svg width="95" height="27" viewBox="0 0 95 27" fill="none" xmlns="http://www.w3.org/2000/svg">
<path fill-rule="evenodd" clip-rule="evenodd" d="M16.5887 4.69885C21.1511 4.69906 24.8503 8.39801 24.8503 12.9605C24.8503 17.3806 21.3782 20.9905 17.013 21.2116L16.5887 21.222C13.4106 21.222 10.653 19.4264 9.27112 16.7953V21.222C4.70855 21.222 1.00952 17.523 1.00952 12.9605C1.00952 8.39788 4.70855 4.69885 9.27112 4.69885C12.4496 4.69885 15.207 6.49502 16.5887 9.12669V4.69885ZM9.27112 9.42006C7.31577 9.42007 5.73073 11.0051 5.73073 12.9605C5.73073 14.8652 7.2349 16.4176 9.12024 16.4966C8.61168 15.4246 8.32709 14.2258 8.32709 12.9605H12.8115C12.8115 11.0051 11.2265 9.42006 9.27112 9.42006ZM13.0483 12.9605C13.0483 14.9158 14.6333 16.5008 16.5887 16.5008L16.771 16.4966C18.6414 16.4016 20.1291 14.8545 20.1291 12.9605C20.1291 11.0551 18.6236 9.50138 16.7375 9.42321C17.2465 10.4957 17.5327 11.6945 17.5327 12.9605H13.0483Z" fill="#F5F5F5"/>
<path d="M37.4552 19.1205C36.5297 19.1205 35.7151 18.9084 35.0114 18.4843C34.3076 18.0505 33.7582 17.4335 33.3629 16.6334C32.9677 15.8332 32.77 14.8788 32.77 13.7702C32.77 12.6713 32.9628 11.7217 33.3485 10.9216C33.7437 10.1118 34.2932 9.49 34.9969 9.05619C35.7007 8.61274 36.5249 8.39102 37.4696 8.39102C38.7421 8.39102 39.7302 8.70914 40.434 9.34539C41.1377 9.98164 41.5956 10.8637 41.8077 11.9916L40.1737 12.0784C40.0387 11.3746 39.7495 10.8252 39.3061 10.4299C38.8626 10.025 38.2505 9.82258 37.4696 9.82258C36.843 9.82258 36.2983 9.98164 35.8356 10.2998C35.3825 10.6179 35.0258 11.071 34.7656 11.659C34.5149 12.2471 34.3896 12.9508 34.3896 13.7702C34.3896 14.5896 34.5149 15.2934 34.7656 15.8814C35.0258 16.4695 35.3873 16.9177 35.8501 17.2262C36.3128 17.5347 36.8478 17.689 37.4552 17.689C38.2842 17.689 38.9253 17.4721 39.3784 17.0382C39.8411 16.5948 40.1303 15.9875 40.246 15.2163L41.88 15.303C41.7547 16.0839 41.504 16.7587 41.1281 17.3275C40.7521 17.8962 40.2556 18.3397 39.6387 18.6578C39.0217 18.9663 38.2939 19.1205 37.4552 19.1205ZM44.7291 19.0627C43.929 19.0627 43.2879 18.8795 42.8059 18.5132C42.3335 18.1469 42.0974 17.6311 42.0974 16.9659C42.0974 16.3008 42.295 15.785 42.6902 15.4187C43.0951 15.0427 43.7169 14.7728 44.5556 14.6089L47.2018 14.1028C47.2018 13.5051 47.062 13.0617 46.7825 12.7725C46.5029 12.4736 46.0884 12.3242 45.5389 12.3242C45.0472 12.3242 44.6616 12.4351 44.3821 12.6568C44.1025 12.8689 43.9097 13.187 43.8037 13.6112L42.2275 13.5099C42.3721 12.7387 42.7288 12.1314 43.2976 11.688C43.876 11.2445 44.6231 11.0228 45.5389 11.0228C46.58 11.0228 47.3705 11.3023 47.9104 11.8615C48.4599 12.411 48.7346 13.187 48.7346 14.1896V17.1829C48.7346 17.366 48.7635 17.4962 48.8214 17.5733C48.8889 17.6408 48.9949 17.6745 49.1395 17.6745H49.4142V18.8892C49.366 18.8988 49.2889 18.9084 49.1829 18.9181C49.0768 18.9277 48.966 18.9325 48.8503 18.9325C48.5225 18.9325 48.2381 18.8795 47.9971 18.7735C47.7658 18.6674 47.5923 18.4939 47.4766 18.2529C47.3609 18.0023 47.303 17.6697 47.303 17.2552L47.4621 17.3275C47.385 17.6649 47.2163 17.9637 46.956 18.224C46.7054 18.4843 46.3824 18.6915 45.9872 18.8458C45.6016 18.9904 45.1822 19.0627 44.7291 19.0627ZM44.9749 17.848C45.4377 17.848 45.8329 17.7613 46.1607 17.5877C46.4885 17.4046 46.7439 17.1539 46.9271 16.8358C47.1102 16.5177 47.2018 16.1562 47.2018 15.7513V15.2596L44.946 15.6934C44.4833 15.7802 44.1555 15.92 43.9627 16.1128C43.7796 16.296 43.688 16.5321 43.688 16.8213C43.688 17.1491 43.7988 17.4046 44.0206 17.5877C44.2519 17.7613 44.5701 17.848 44.9749 17.848ZM52.7487 19.0627C52.0257 19.0627 51.4135 18.9518 50.9122 18.7301C50.4206 18.5084 50.0398 18.2047 49.7699 17.8191C49.4999 17.4239 49.3457 16.9708 49.3071 16.4598L50.8833 16.3875C50.9604 16.8117 51.1436 17.1491 51.4328 17.3998C51.722 17.6504 52.1606 17.7757 52.7487 17.7757C53.2307 17.7757 53.6115 17.6986 53.891 17.5444C54.1706 17.3901 54.3104 17.1443 54.3104 16.8069C54.3104 16.6237 54.2622 16.4695 54.1658 16.3442C54.079 16.2092 53.9055 16.0983 53.6452 16.0116C53.3849 15.9152 52.9993 15.8236 52.4884 15.7368C51.7268 15.5922 51.1291 15.4235 50.6953 15.2307C50.2615 15.0379 49.953 14.7921 49.7699 14.4932C49.5867 14.1944 49.4951 13.8329 49.4951 13.4087C49.4951 12.705 49.7554 12.1314 50.276 11.688C50.8062 11.2445 51.5678 11.0228 52.5607 11.0228C53.2259 11.0228 53.785 11.1385 54.2381 11.3698C54.6912 11.5916 55.043 11.8952 55.2937 12.2808C55.554 12.6568 55.7179 13.081 55.7853 13.5533L54.2092 13.6401C54.161 13.3702 54.0646 13.1388 53.92 12.946C53.785 12.7436 53.6018 12.5893 53.3705 12.4833C53.1391 12.3676 52.8644 12.3097 52.5462 12.3097C52.0546 12.3097 51.6883 12.4061 51.4473 12.5989C51.2063 12.7918 51.0858 13.0424 51.0858 13.3509C51.0858 13.5822 51.1388 13.7702 51.2448 13.9148C51.3605 14.0594 51.5437 14.1799 51.7943 14.2763C52.045 14.3631 52.3775 14.4402 52.7921 14.5077C53.5922 14.6427 54.2188 14.8114 54.6719 15.0138C55.125 15.2066 55.4431 15.4476 55.6263 15.7368C55.8094 16.026 55.901 16.3779 55.901 16.7924C55.901 17.2744 55.7661 17.6841 55.4961 18.0215C55.2262 18.359 54.8551 18.6192 54.3827 18.8024C53.9103 18.9759 53.3657 19.0627 52.7487 19.0627ZM56.5846 18.8892V8.62238H58.1174V12.9315L57.9294 12.9026C58.0162 12.4688 58.1752 12.1169 58.4066 11.847C58.638 11.5675 58.9223 11.3602 59.2598 11.2252C59.5972 11.0903 59.9683 11.0228 60.3732 11.0228C60.9323 11.0228 61.4047 11.1481 61.7903 11.3987C62.1759 11.6398 62.4651 11.982 62.6579 12.4254C62.8604 12.8689 62.9616 13.375 62.9616 13.9438V18.8892H61.4288V14.3486C61.4288 13.6545 61.3083 13.1436 61.0673 12.8159C60.8359 12.4784 60.4696 12.3097 59.9683 12.3097C59.4092 12.3097 58.9609 12.4881 58.6235 12.8448C58.2861 13.1918 58.1174 13.7027 58.1174 14.3776V18.8892H56.5846ZM63.9921 18.8892V11.1963H65.3947L65.4381 13.1051L65.2646 13.0472C65.3514 12.6231 65.5008 12.2615 65.7129 11.9627C65.9346 11.6639 66.2045 11.4325 66.5226 11.2686C66.8408 11.1047 67.1878 11.0228 67.5638 11.0228C68.2193 11.0228 68.7543 11.2108 69.1689 11.5867C69.5834 11.9531 69.8437 12.4592 69.9497 13.1051H69.7039C69.7907 12.652 69.9353 12.276 70.1377 11.9772C70.3498 11.6687 70.6197 11.4325 70.9475 11.2686C71.2752 11.1047 71.6464 11.0228 72.0609 11.0228C72.6008 11.0228 73.0587 11.1385 73.4346 11.3698C73.8203 11.5916 74.1095 11.9193 74.3023 12.3531C74.5047 12.7869 74.6059 13.3171 74.6059 13.9438V18.8892H73.0731V14.3197C73.0731 13.6545 72.9526 13.1533 72.7116 12.8159C72.4706 12.4784 72.1043 12.3097 71.6127 12.3097C71.2945 12.3097 71.015 12.3917 70.774 12.5556C70.533 12.7195 70.345 12.9556 70.21 13.2641C70.0847 13.5726 70.022 13.9438 70.022 14.3776V18.8892H68.5615V14.3776C68.5615 13.722 68.4507 13.2159 68.229 12.8592C68.0169 12.4929 67.6505 12.3097 67.13 12.3097C66.8022 12.3097 66.5178 12.3917 66.2768 12.5556C66.0455 12.7195 65.8623 12.9605 65.7273 13.2786C65.5924 13.5871 65.5249 13.9534 65.5249 14.3776V18.8892H63.9921ZM78.9158 19.0627C78.1638 19.0627 77.5131 18.8988 76.9636 18.571C76.4238 18.2433 76.0044 17.7757 75.7056 17.1684C75.4164 16.5611 75.2718 15.8525 75.2718 15.0427C75.2718 14.233 75.4164 13.5292 75.7056 12.9315C76.0044 12.3242 76.4238 11.8567 76.9636 11.5289C77.5035 11.1915 78.1397 11.0228 78.8724 11.0228C79.5665 11.0228 80.1786 11.1867 80.7088 11.5144C81.239 11.8326 81.6487 12.2953 81.938 12.9026C82.2368 13.5099 82.3862 14.2426 82.3862 15.1006V15.491H76.8624C76.901 16.2429 77.0986 16.8069 77.4553 17.1829C77.8216 17.5588 78.3132 17.7468 78.9302 17.7468C79.3833 17.7468 79.7593 17.6408 80.0581 17.4287C80.357 17.2166 80.5642 16.9322 80.6799 16.5755L82.2705 16.6767C82.0681 17.3901 81.668 17.9685 81.0703 18.412C80.4823 18.8458 79.7641 19.0627 78.9158 19.0627ZM76.8624 14.3342H80.7667C80.7185 13.6497 80.5208 13.1436 80.1738 12.8159C79.8364 12.4881 79.4026 12.3242 78.8724 12.3242C78.3229 12.3242 77.8698 12.4977 77.5131 12.8448C77.1661 13.1822 76.9492 13.6786 76.8624 14.3342ZM83.0717 18.8892V11.1963H84.4744L84.5322 13.2352L84.4021 13.1918C84.5081 12.4977 84.7202 11.9916 85.0383 11.6735C85.3661 11.3554 85.8047 11.1963 86.3542 11.1963H87.0917V12.57H86.3542C85.9686 12.57 85.6456 12.6327 85.3854 12.758C85.1251 12.8833 84.9275 13.0761 84.7925 13.3364C84.6672 13.5967 84.6045 13.9341 84.6045 14.3486V18.8892H83.0717ZM90.4828 19.0627C89.7309 19.0627 89.0802 18.8988 88.5307 18.571C87.9908 18.2433 87.5715 17.7757 87.2727 17.1684C86.9834 16.5611 86.8388 15.8525 86.8388 15.0427C86.8388 14.233 86.9834 13.5292 87.2727 12.9315C87.5715 12.3242 87.9908 11.8567 88.5307 11.5289C89.0705 11.1915 89.7068 11.0228 90.4394 11.0228C91.1335 11.0228 91.7457 11.1867 92.2759 11.5144C92.8061 11.8326 93.2158 12.2953 93.505 12.9026C93.8039 13.5099 93.9533 14.2426 93.9533 15.1006V15.491H88.4295C88.468 16.2429 88.6657 16.8069 89.0223 17.1829C89.3887 17.5588 89.8803 17.7468 90.4973 17.7468C90.9504 17.7468 91.3263 17.6408 91.6252 17.4287C91.924 17.2166 92.1313 16.9322 92.247 16.5755L93.8376 16.6767C93.6352 17.3901 93.2351 17.9685 92.6374 18.412C92.0494 18.8458 91.3312 19.0627 90.4828 19.0627ZM88.4295 14.3342H92.3337C92.2855 13.6497 92.0879 13.1436 91.7409 12.8159C91.4035 12.4881 90.9697 12.3242 90.4394 12.3242C89.89 12.3242 89.4369 12.4977 89.0802 12.8448C88.7331 13.1822 88.5162 13.6786 88.4295 14.3342Z" fill="#F5F5F5"/>
</svg>
