<svg width="100" height="100" viewBox="0 0 100 100" fill="none" xmlns="http://www.w3.org/2000/svg">
<path fill-rule="evenodd" clip-rule="evenodd" d="M63.4011 19.0003C80.4388 19.0011 94.253 32.8144 94.253 49.8522C94.253 66.3586 81.2871 79.8394 64.9858 80.665L63.4011 80.7041C51.5331 80.7041 41.2349 73.9984 36.0746 64.1728V80.7041C19.0362 80.7041 5.22268 66.8905 5.22268 49.8522C5.22268 32.8139 19.0362 19.0003 36.0746 19.0003C47.9441 19.0003 58.2414 25.7079 63.4011 35.5355V19.0003ZM36.0746 36.6311C28.7726 36.6311 22.8535 42.5502 22.8535 49.8522C22.8535 56.9654 28.4706 62.7624 35.5111 63.0577C33.612 59.0542 32.5492 54.5776 32.5492 49.8522H49.2957C49.2957 42.5502 43.3766 36.6311 36.0746 36.6311ZM50.18 49.8522C50.18 57.1541 56.0992 63.0733 63.4011 63.0733L64.0819 63.0577C71.0669 62.7027 76.6222 56.9254 76.6222 49.8522C76.6222 42.7368 71.0003 36.9348 63.9567 36.6428C65.8575 40.6477 66.9265 45.1245 66.9265 49.8522H50.18Z" fill="#111111"/>
</svg>
