<svg width="707" height="200" viewBox="0 0 707 200" fill="none" xmlns="http://www.w3.org/2000/svg">
<path fill-rule="evenodd" clip-rule="evenodd" d="M126.802 38.0006C160.878 38.0022 188.506 65.6287 188.506 99.7044C188.506 132.717 162.574 159.679 129.971 161.33L126.802 161.408C103.066 161.408 82.4698 147.997 72.1491 128.346V161.408C38.0724 161.408 10.4453 133.781 10.4453 99.7044C10.4453 65.6277 38.0724 38.0006 72.1491 38.0006C95.8882 38.0006 116.483 51.4157 126.802 71.071V38.0006ZM72.1491 73.2622C57.5451 73.2622 45.7069 85.1004 45.7069 99.7044C45.7069 113.931 56.9411 125.525 71.0223 126.115C67.2239 118.108 65.0984 109.155 65.0984 99.7044H98.5914C98.5914 85.1004 86.7531 73.2622 72.1491 73.2622ZM100.36 99.7044C100.36 114.308 112.198 126.147 126.802 126.147L128.164 126.115C142.134 125.405 153.244 113.851 153.244 99.7044C153.244 85.4737 142.001 73.8695 127.913 73.2856C131.715 81.2954 133.853 90.2491 133.853 99.7044H100.36Z" fill="#F5F5F5"/>
<path d="M279.744 140.228C272.832 140.228 266.748 138.644 261.492 135.476C256.236 132.236 252.132 127.628 249.18 121.652C246.228 115.676 244.752 108.548 244.752 100.268C244.752 92.06 246.192 84.968 249.072 78.992C252.024 72.944 256.128 68.3 261.384 65.06C266.64 61.748 272.796 60.092 279.852 60.092C289.356 60.092 296.736 62.468 301.992 67.22C307.248 71.972 310.668 78.56 312.252 86.984L300.048 87.632C299.04 82.376 296.88 78.272 293.568 75.32C290.256 72.296 285.684 70.784 279.852 70.784C275.172 70.784 271.104 71.972 267.648 74.348C264.264 76.724 261.6 80.108 259.656 84.5C257.784 88.892 256.848 94.148 256.848 100.268C256.848 106.388 257.784 111.644 259.656 116.036C261.6 120.428 264.3 123.776 267.756 126.08C271.212 128.384 275.208 129.536 279.744 129.536C285.936 129.536 290.724 127.916 294.108 124.676C297.564 121.364 299.724 116.828 300.588 111.068L312.792 111.716C311.856 117.548 309.984 122.588 307.176 126.836C304.368 131.084 300.66 134.396 296.052 136.772C291.444 139.076 286.008 140.228 279.744 140.228ZM334.071 139.796C328.095 139.796 323.307 138.428 319.707 135.692C316.179 132.956 314.415 129.104 314.415 124.136C314.415 119.168 315.891 115.316 318.843 112.58C321.867 109.772 326.511 107.756 332.775 106.532L352.539 102.752C352.539 98.288 351.495 94.976 349.407 92.816C347.319 90.584 344.223 89.468 340.119 89.468C336.447 89.468 333.567 90.296 331.479 91.952C329.391 93.536 327.951 95.912 327.159 99.08L315.387 98.324C316.467 92.564 319.131 88.028 323.379 84.716C327.699 81.404 333.279 79.748 340.119 79.748C347.895 79.748 353.799 81.836 357.831 86.012C361.935 90.116 363.987 95.912 363.987 103.4V125.756C363.987 127.124 364.203 128.096 364.635 128.672C365.139 129.176 365.931 129.428 367.011 129.428H369.063V138.5C368.703 138.572 368.127 138.644 367.335 138.716C366.543 138.788 365.715 138.824 364.851 138.824C362.403 138.824 360.279 138.428 358.479 137.636C356.751 136.844 355.455 135.548 354.591 133.748C353.727 131.876 353.295 129.392 353.295 126.296L354.483 126.836C353.907 129.356 352.647 131.588 350.703 133.532C348.831 135.476 346.419 137.024 343.467 138.176C340.587 139.256 337.455 139.796 334.071 139.796ZM335.907 130.724C339.363 130.724 342.315 130.076 344.763 128.78C347.211 127.412 349.119 125.54 350.487 123.164C351.855 120.788 352.539 118.088 352.539 115.064V111.392L335.691 114.632C332.235 115.28 329.787 116.324 328.347 117.764C326.979 119.132 326.295 120.896 326.295 123.056C326.295 125.504 327.123 127.412 328.779 128.78C330.507 130.076 332.883 130.724 335.907 130.724ZM393.968 139.796C388.568 139.796 383.996 138.968 380.252 137.312C376.58 135.656 373.736 133.388 371.72 130.508C369.704 127.556 368.552 124.172 368.264 120.356L380.036 119.816C380.612 122.984 381.98 125.504 384.14 127.376C386.3 129.248 389.576 130.184 393.968 130.184C397.568 130.184 400.412 129.608 402.5 128.456C404.588 127.304 405.632 125.468 405.632 122.948C405.632 121.58 405.272 120.428 404.552 119.492C403.904 118.484 402.608 117.656 400.664 117.008C398.72 116.288 395.84 115.604 392.024 114.956C386.336 113.876 381.872 112.616 378.632 111.176C375.392 109.736 373.088 107.9 371.72 105.668C370.352 103.436 369.668 100.736 369.668 97.568C369.668 92.312 371.612 88.028 375.5 84.716C379.46 81.404 385.148 79.748 392.564 79.748C397.532 79.748 401.708 80.612 405.092 82.34C408.476 83.996 411.104 86.264 412.976 89.144C414.92 91.952 416.144 95.12 416.648 98.648L404.876 99.296C404.516 97.28 403.796 95.552 402.716 94.112C401.708 92.6 400.34 91.448 398.612 90.656C396.884 89.792 394.832 89.36 392.456 89.36C388.784 89.36 386.048 90.08 384.248 91.52C382.448 92.96 381.548 94.832 381.548 97.136C381.548 98.864 381.944 100.268 382.736 101.348C383.6 102.428 384.968 103.328 386.84 104.048C388.712 104.696 391.196 105.272 394.292 105.776C400.268 106.784 404.948 108.044 408.332 109.556C411.716 110.996 414.092 112.796 415.46 114.956C416.828 117.116 417.512 119.744 417.512 122.84C417.512 126.44 416.504 129.5 414.488 132.02C412.472 134.54 409.7 136.484 406.172 137.852C402.644 139.148 398.576 139.796 393.968 139.796ZM422.617 138.5V61.82H434.065V94.004L432.661 93.788C433.309 90.548 434.497 87.92 436.225 85.904C437.953 83.816 440.077 82.268 442.597 81.26C445.117 80.252 447.889 79.748 450.913 79.748C455.089 79.748 458.617 80.684 461.497 82.556C464.377 84.356 466.537 86.912 467.977 90.224C469.489 93.536 470.245 97.316 470.245 101.564V138.5H458.797V104.588C458.797 99.404 457.897 95.588 456.097 93.14C454.369 90.62 451.633 89.36 447.889 89.36C443.713 89.36 440.365 90.692 437.845 93.356C435.325 95.948 434.065 99.764 434.065 104.804V138.5H422.617ZM477.942 138.5V81.044H488.418L488.742 95.3L487.446 94.868C488.094 91.7 489.21 89 490.794 86.768C492.45 84.536 494.466 82.808 496.842 81.584C499.218 80.36 501.81 79.748 504.618 79.748C509.514 79.748 513.51 81.152 516.606 83.96C519.702 86.696 521.646 90.476 522.438 95.3H520.602C521.25 91.916 522.33 89.108 523.842 86.876C525.426 84.572 527.442 82.808 529.89 81.584C532.338 80.36 535.11 79.748 538.206 79.748C542.238 79.748 545.658 80.612 548.466 82.34C551.346 83.996 553.506 86.444 554.946 89.684C556.458 92.924 557.214 96.884 557.214 101.564V138.5H545.766V104.372C545.766 99.404 544.866 95.66 543.066 93.14C541.266 90.62 538.53 89.36 534.858 89.36C532.482 89.36 530.394 89.972 528.594 91.196C526.794 92.42 525.39 94.184 524.382 96.488C523.446 98.792 522.978 101.564 522.978 104.804V138.5H512.07V104.804C512.07 99.908 511.242 96.128 509.586 93.464C508.002 90.728 505.266 89.36 501.378 89.36C498.93 89.36 496.806 89.972 495.006 91.196C493.278 92.42 491.91 94.22 490.902 96.596C489.894 98.9 489.39 101.636 489.39 104.804V138.5H477.942ZM589.403 139.796C583.787 139.796 578.927 138.572 574.823 136.124C570.791 133.676 567.659 130.184 565.427 125.648C563.267 121.112 562.187 115.82 562.187 109.772C562.187 103.724 563.267 98.468 565.427 94.004C567.659 89.468 570.791 85.976 574.823 83.528C578.855 81.008 583.607 79.748 589.079 79.748C594.263 79.748 598.835 80.972 602.795 83.42C606.755 85.796 609.815 89.252 611.975 93.788C614.207 98.324 615.323 103.796 615.323 110.204V113.12H574.067C574.355 118.736 575.831 122.948 578.495 125.756C581.231 128.564 584.903 129.968 589.511 129.968C592.895 129.968 595.703 129.176 597.935 127.592C600.167 126.008 601.715 123.884 602.579 121.22L614.459 121.976C612.947 127.304 609.959 131.624 605.495 134.936C601.103 138.176 595.739 139.796 589.403 139.796ZM574.067 104.48H603.227C602.867 99.368 601.391 95.588 598.799 93.14C596.279 90.692 593.039 89.468 589.079 89.468C584.975 89.468 581.591 90.764 578.927 93.356C576.335 95.876 574.715 99.584 574.067 104.48ZM620.443 138.5V81.044H630.919L631.351 96.272L630.379 95.948C631.171 90.764 632.755 86.984 635.131 84.608C637.579 82.232 640.855 81.044 644.959 81.044H650.467V91.304H644.959C642.079 91.304 639.667 91.772 637.723 92.708C635.779 93.644 634.303 95.084 633.295 97.028C632.359 98.972 631.891 101.492 631.891 104.588V138.5H620.443ZM675.794 139.796C670.178 139.796 665.318 138.572 661.214 136.124C657.182 133.676 654.05 130.184 651.818 125.648C649.658 121.112 648.578 115.82 648.578 109.772C648.578 103.724 649.658 98.468 651.818 94.004C654.05 89.468 657.182 85.976 661.214 83.528C665.246 81.008 669.998 79.748 675.47 79.748C680.654 79.748 685.226 80.972 689.186 83.42C693.146 85.796 696.206 89.252 698.366 93.788C700.598 98.324 701.714 103.796 701.714 110.204V113.12H660.458C660.746 118.736 662.222 122.948 664.886 125.756C667.622 128.564 671.294 129.968 675.902 129.968C679.286 129.968 682.094 129.176 684.326 127.592C686.558 126.008 688.106 123.884 688.97 121.22L700.85 121.976C699.338 127.304 696.35 131.624 691.886 134.936C687.494 138.176 682.13 139.796 675.794 139.796ZM660.458 104.48H689.618C689.258 99.368 687.782 95.588 685.19 93.14C682.67 90.692 679.43 89.468 675.47 89.468C671.366 89.468 667.982 90.764 665.318 93.356C662.726 95.876 661.106 99.584 660.458 104.48Z" fill="#F5F5F5"/>
</svg>
