<svg width="32" height="32" viewBox="0 0 32 32" fill="none" xmlns="http://www.w3.org/2000/svg">
<path fill-rule="evenodd" clip-rule="evenodd" d="M20.2884 6.08008C25.7404 6.08033 30.161 10.5006 30.161 15.9527C30.161 21.2347 26.0119 25.5486 20.7954 25.8128L20.2884 25.8253C16.4906 25.8253 13.1952 23.6795 11.5439 20.5353V25.8253C6.0916 25.8253 1.67126 21.405 1.67126 15.9527C1.67126 10.5004 6.0916 6.08008 11.5439 6.08008C15.3421 6.08008 18.6373 8.22649 20.2884 11.3713V6.08008ZM11.5439 11.7219C9.20723 11.7219 7.31311 13.616 7.31311 15.9527C7.31311 18.2289 9.11059 20.084 11.3636 20.1784C10.7558 18.8973 10.4158 17.4648 10.4157 15.9527H15.7746C15.7746 13.616 13.8805 11.7219 11.5439 11.7219ZM16.0576 15.9527C16.0576 18.2893 17.9517 20.1834 20.2884 20.1834L20.5062 20.1784C22.7414 20.0648 24.5191 18.2161 24.5191 15.9527C24.5191 13.6758 22.7201 11.8191 20.4662 11.7257C21.0744 13.0073 21.4165 14.4398 21.4165 15.9527H16.0576Z" fill="#111111"/>
</svg>
