<svg width="1413" height="400" viewBox="0 0 1413 400" fill="none" xmlns="http://www.w3.org/2000/svg">
<path fill-rule="evenodd" clip-rule="evenodd" d="M253.604 76.0013C321.755 76.0044 377.012 131.257 377.012 199.409C377.012 265.434 325.148 319.358 259.943 322.66L253.604 322.816C206.132 322.816 164.94 295.994 144.298 256.691V322.816C76.1449 322.816 20.8907 267.562 20.8907 199.409C20.8907 131.256 76.1449 76.0013 144.298 76.0013C191.776 76.0013 232.966 102.831 253.604 142.142V76.0013ZM144.298 146.524C115.09 146.524 91.4138 170.201 91.4138 199.409C91.4138 227.862 113.882 251.05 142.045 252.231C134.448 236.217 130.197 218.311 130.197 199.409H197.183C197.183 170.201 173.506 146.524 144.298 146.524ZM200.72 199.409C200.72 228.617 224.397 252.293 253.604 252.293L256.328 252.231C284.267 250.811 306.489 227.702 306.489 199.409C306.489 170.947 284.001 147.739 255.827 146.571C263.43 162.591 267.706 180.498 267.706 199.409H200.72Z" fill="#111111"/>
<path d="M559.488 279.956C545.664 279.956 533.496 276.788 522.984 270.452C512.472 263.972 504.264 254.756 498.36 242.804C492.456 230.852 489.504 216.596 489.504 200.036C489.504 183.62 492.384 169.436 498.144 157.484C504.048 145.388 512.256 136.1 522.768 129.62C533.28 122.996 545.592 119.684 559.704 119.684C578.712 119.684 593.472 124.436 603.984 133.94C614.496 143.444 621.336 156.62 624.504 173.468L600.096 174.764C598.08 164.252 593.76 156.044 587.136 150.14C580.512 144.092 571.368 141.068 559.704 141.068C550.344 141.068 542.208 143.444 535.296 148.196C528.528 152.948 523.2 159.716 519.312 168.5C515.568 177.284 513.696 187.796 513.696 200.036C513.696 212.276 515.568 222.788 519.312 231.572C523.2 240.356 528.6 247.052 535.512 251.66C542.424 256.268 550.416 258.572 559.488 258.572C571.872 258.572 581.448 255.332 588.216 248.852C595.128 242.228 599.448 233.156 601.176 221.636L625.584 222.932C623.712 234.596 619.968 244.676 614.352 253.172C608.736 261.668 601.32 268.292 592.104 273.044C582.888 277.652 572.016 279.956 559.488 279.956ZM668.143 279.092C656.191 279.092 646.615 276.356 639.415 270.884C632.359 265.412 628.831 257.708 628.831 247.772C628.831 237.836 631.783 230.132 637.687 224.66C643.735 219.044 653.023 215.012 665.551 212.564L705.079 205.004C705.079 196.076 702.991 189.452 698.815 185.132C694.639 180.668 688.447 178.436 680.239 178.436C672.895 178.436 667.135 180.092 662.959 183.404C658.783 186.572 655.903 191.324 654.319 197.66L630.775 196.148C632.935 184.628 638.263 175.556 646.759 168.932C655.399 162.308 666.559 158.996 680.239 158.996C695.791 158.996 707.599 163.172 715.663 171.524C723.871 179.732 727.975 191.324 727.975 206.3V251.012C727.975 253.748 728.407 255.692 729.271 256.844C730.279 257.852 731.863 258.356 734.023 258.356H738.127V276.5C737.407 276.644 736.255 276.788 734.671 276.932C733.087 277.076 731.431 277.148 729.703 277.148C724.807 277.148 720.559 276.356 716.959 274.772C713.503 273.188 710.911 270.596 709.183 266.996C707.455 263.252 706.591 258.284 706.591 252.092L708.967 253.172C707.815 258.212 705.295 262.676 701.407 266.564C697.663 270.452 692.839 273.548 686.935 275.852C681.175 278.012 674.911 279.092 668.143 279.092ZM671.815 260.948C678.727 260.948 684.631 259.652 689.527 257.06C694.423 254.324 698.239 250.58 700.975 245.828C703.711 241.076 705.079 235.676 705.079 229.628V222.284L671.383 228.764C664.471 230.06 659.575 232.148 656.695 235.028C653.959 237.764 652.591 241.292 652.591 245.612C652.591 250.508 654.247 254.324 657.559 257.06C661.015 259.652 665.767 260.948 671.815 260.948ZM787.935 279.092C777.135 279.092 767.991 277.436 760.503 274.124C753.159 270.812 747.471 266.276 743.439 260.516C739.407 254.612 737.103 247.844 736.527 240.212L760.071 239.132C761.223 245.468 763.959 250.508 768.279 254.252C772.599 257.996 779.151 259.868 787.935 259.868C795.135 259.868 800.823 258.716 804.999 256.412C809.175 254.108 811.263 250.436 811.263 245.396C811.263 242.66 810.543 240.356 809.103 238.484C807.807 236.468 805.215 234.812 801.327 233.516C797.439 232.076 791.679 230.708 784.047 229.412C772.671 227.252 763.743 224.732 757.263 221.852C750.783 218.972 746.175 215.3 743.439 210.836C740.703 206.372 739.335 200.972 739.335 194.636C739.335 184.124 743.223 175.556 750.999 168.932C758.919 162.308 770.295 158.996 785.127 158.996C795.063 158.996 803.415 160.724 810.183 164.18C816.951 167.492 822.207 172.028 825.951 177.788C829.839 183.404 832.287 189.74 833.295 196.796L809.751 198.092C809.031 194.06 807.591 190.604 805.431 187.724C803.415 184.7 800.679 182.396 797.223 180.812C793.767 179.084 789.663 178.22 784.911 178.22C777.567 178.22 772.095 179.66 768.495 182.54C764.895 185.42 763.095 189.164 763.095 193.772C763.095 197.228 763.887 200.036 765.471 202.196C767.199 204.356 769.935 206.156 773.679 207.596C777.423 208.892 782.391 210.044 788.583 211.052C800.535 213.068 809.895 215.588 816.663 218.612C823.431 221.492 828.183 225.092 830.919 229.412C833.655 233.732 835.023 238.988 835.023 245.18C835.023 252.38 833.007 258.5 828.975 263.54C824.943 268.58 819.399 272.468 812.343 275.204C805.287 277.796 797.151 279.092 787.935 279.092ZM845.234 276.5V123.14H868.13V187.508L865.322 187.076C866.618 180.596 868.994 175.34 872.45 171.308C875.906 167.132 880.154 164.036 885.194 162.02C890.234 160.004 895.778 158.996 901.826 158.996C910.178 158.996 917.234 160.868 922.994 164.612C928.754 168.212 933.074 173.324 935.954 179.948C938.978 186.572 940.49 194.132 940.49 202.628V276.5H917.594V208.676C917.594 198.308 915.794 190.676 912.194 185.78C908.738 180.74 903.266 178.22 895.778 178.22C887.426 178.22 880.73 180.884 875.69 186.212C870.65 191.396 868.13 199.028 868.13 209.108V276.5H845.234ZM955.883 276.5V161.588H976.835L977.483 190.1L974.891 189.236C976.187 182.9 978.419 177.5 981.587 173.036C984.899 168.572 988.931 165.116 993.683 162.668C998.435 160.22 1003.62 158.996 1009.24 158.996C1019.03 158.996 1027.02 161.804 1033.21 167.42C1039.4 172.892 1043.29 180.452 1044.88 190.1H1041.2C1042.5 183.332 1044.66 177.716 1047.68 173.252C1050.85 168.644 1054.88 165.116 1059.78 162.668C1064.68 160.22 1070.22 158.996 1076.41 158.996C1084.48 158.996 1091.32 160.724 1096.93 164.18C1102.69 167.492 1107.01 172.388 1109.89 178.868C1112.92 185.348 1114.43 193.268 1114.43 202.628V276.5H1091.53V208.244C1091.53 198.308 1089.73 190.82 1086.13 185.78C1082.53 180.74 1077.06 178.22 1069.72 178.22C1064.96 178.22 1060.79 179.444 1057.19 181.892C1053.59 184.34 1050.78 187.868 1048.76 192.476C1046.89 197.084 1045.96 202.628 1045.96 209.108V276.5H1024.14V209.108C1024.14 199.316 1022.48 191.756 1019.17 186.428C1016 180.956 1010.53 178.22 1002.76 178.22C997.859 178.22 993.611 179.444 990.011 181.892C986.555 184.34 983.819 187.94 981.803 192.692C979.787 197.3 978.779 202.772 978.779 209.108V276.5H955.883ZM1178.81 279.092C1167.57 279.092 1157.85 276.644 1149.65 271.748C1141.58 266.852 1135.32 259.868 1130.85 250.796C1126.53 241.724 1124.37 231.14 1124.37 219.044C1124.37 206.948 1126.53 196.436 1130.85 187.508C1135.32 178.436 1141.58 171.452 1149.65 166.556C1157.71 161.516 1167.21 158.996 1178.16 158.996C1188.53 158.996 1197.67 161.444 1205.59 166.34C1213.51 171.092 1219.63 178.004 1223.95 187.076C1228.41 196.148 1230.65 207.092 1230.65 219.908V225.74H1148.13C1148.71 236.972 1151.66 245.396 1156.99 251.012C1162.46 256.628 1169.81 259.436 1179.02 259.436C1185.79 259.436 1191.41 257.852 1195.87 254.684C1200.33 251.516 1203.43 247.268 1205.16 241.94L1228.92 243.452C1225.89 254.108 1219.92 262.748 1210.99 269.372C1202.21 275.852 1191.48 279.092 1178.81 279.092ZM1148.13 208.46H1206.45C1205.73 198.236 1202.78 190.676 1197.6 185.78C1192.56 180.884 1186.08 178.436 1178.16 178.436C1169.95 178.436 1163.18 181.028 1157.85 186.212C1152.67 191.252 1149.43 198.668 1148.13 208.46ZM1240.89 276.5V161.588H1261.84L1262.7 192.044L1260.76 191.396C1262.34 181.028 1265.51 173.468 1270.26 168.716C1275.16 163.964 1281.71 161.588 1289.92 161.588H1300.93V182.108H1289.92C1284.16 182.108 1279.33 183.044 1275.45 184.916C1271.56 186.788 1268.61 189.668 1266.59 193.556C1264.72 197.444 1263.78 202.484 1263.78 208.676V276.5H1240.89ZM1351.59 279.092C1340.36 279.092 1330.64 276.644 1322.43 271.748C1314.36 266.852 1308.1 259.868 1303.64 250.796C1299.32 241.724 1297.16 231.14 1297.16 219.044C1297.16 206.948 1299.32 196.436 1303.64 187.508C1308.1 178.436 1314.36 171.452 1322.43 166.556C1330.49 161.516 1340 158.996 1350.94 158.996C1361.31 158.996 1370.45 161.444 1378.37 166.34C1386.29 171.092 1392.41 178.004 1396.73 187.076C1401.2 196.148 1403.43 207.092 1403.43 219.908V225.74H1320.92C1321.49 236.972 1324.44 245.396 1329.77 251.012C1335.24 256.628 1342.59 259.436 1351.8 259.436C1358.57 259.436 1364.19 257.852 1368.65 254.684C1373.12 251.516 1376.21 247.268 1377.94 241.94L1401.7 243.452C1398.68 254.108 1392.7 262.748 1383.77 269.372C1374.99 275.852 1364.26 279.092 1351.59 279.092ZM1320.92 208.46H1379.24C1378.52 198.236 1375.56 190.676 1370.38 185.78C1365.34 180.884 1358.86 178.436 1350.94 178.436C1342.73 178.436 1335.96 181.028 1330.64 186.212C1325.45 191.252 1322.21 198.668 1320.92 208.46Z" fill="#111111"/>
</svg>
