<svg width="354" height="100" viewBox="0 0 354 100" fill="none" xmlns="http://www.w3.org/2000/svg">
<path fill-rule="evenodd" clip-rule="evenodd" d="M63.4011 19.0003C80.4388 19.0011 94.253 32.8144 94.253 49.8522C94.253 66.3586 81.2871 79.8394 64.9857 80.665L63.4011 80.7041C51.5331 80.7041 41.2349 73.9984 36.0746 64.1728V80.7041C19.0362 80.7041 5.22266 66.8905 5.22266 49.8522C5.22266 32.8139 19.0362 19.0003 36.0746 19.0003C47.9441 19.0003 58.2414 25.7079 63.4011 35.5355V19.0003ZM36.0746 36.6311C28.7726 36.6311 22.8534 42.5502 22.8534 49.8522C22.8534 56.9654 28.4706 62.7624 35.5111 63.0577C33.612 59.0542 32.5492 54.5776 32.5492 49.8522H49.2957C49.2957 42.5502 43.3766 36.6311 36.0746 36.6311ZM50.18 49.8522C50.18 57.1541 56.0991 63.0733 63.4011 63.0733L64.0819 63.0577C71.0668 62.7027 76.6222 56.9254 76.6222 49.8522C76.6222 42.7368 71.0003 36.9348 63.9567 36.6428C65.8575 40.6477 66.9265 45.1245 66.9265 49.8522H50.18Z" fill="#111111"/>
<path d="M139.872 69.864C136.416 69.864 133.374 69.072 130.746 67.488C128.118 65.868 126.066 63.564 124.59 60.576C123.114 57.588 122.376 54.024 122.376 49.884C122.376 45.78 123.096 42.234 124.536 39.246C126.012 36.222 128.064 33.9 130.692 32.28C133.32 30.624 136.398 29.796 139.926 29.796C144.678 29.796 148.368 30.984 150.996 33.36C153.624 35.736 155.334 39.03 156.126 43.242L150.024 43.566C149.52 40.938 148.44 38.886 146.784 37.41C145.128 35.898 142.842 35.142 139.926 35.142C137.586 35.142 135.552 35.736 133.824 36.924C132.132 38.112 130.8 39.804 129.828 42C128.892 44.196 128.424 46.824 128.424 49.884C128.424 52.944 128.892 55.572 129.828 57.768C130.8 59.964 132.15 61.638 133.878 62.79C135.606 63.942 137.604 64.518 139.872 64.518C142.968 64.518 145.362 63.708 147.054 62.088C148.782 60.432 149.862 58.164 150.294 55.284L156.396 55.608C155.928 58.524 154.992 61.044 153.588 63.168C152.184 65.292 150.33 66.948 148.026 68.136C145.722 69.288 143.004 69.864 139.872 69.864ZM167.036 69.648C164.048 69.648 161.654 68.964 159.854 67.596C158.09 66.228 157.208 64.302 157.208 61.818C157.208 59.334 157.946 57.408 159.422 56.04C160.934 54.636 163.256 53.628 166.388 53.016L176.27 51.126C176.27 48.894 175.748 47.238 174.704 46.158C173.66 45.042 172.112 44.484 170.06 44.484C168.224 44.484 166.784 44.898 165.74 45.726C164.696 46.518 163.976 47.706 163.58 49.29L157.694 48.912C158.234 46.032 159.566 43.764 161.69 42.108C163.85 40.452 166.64 39.624 170.06 39.624C173.948 39.624 176.9 40.668 178.916 42.756C180.968 44.808 181.994 47.706 181.994 51.45V62.628C181.994 63.312 182.102 63.798 182.318 64.086C182.57 64.338 182.966 64.464 183.506 64.464H184.532V69C184.352 69.036 184.064 69.072 183.668 69.108C183.272 69.144 182.858 69.162 182.426 69.162C181.202 69.162 180.14 68.964 179.24 68.568C178.376 68.172 177.728 67.524 177.296 66.624C176.864 65.688 176.648 64.446 176.648 62.898L177.242 63.168C176.954 64.428 176.324 65.544 175.352 66.516C174.416 67.488 173.21 68.262 171.734 68.838C170.294 69.378 168.728 69.648 167.036 69.648ZM167.954 65.112C169.682 65.112 171.158 64.788 172.382 64.14C173.606 63.456 174.56 62.52 175.244 61.332C175.928 60.144 176.27 58.794 176.27 57.282V55.446L167.846 57.066C166.118 57.39 164.894 57.912 164.174 58.632C163.49 59.316 163.148 60.198 163.148 61.278C163.148 62.502 163.562 63.456 164.39 64.14C165.254 64.788 166.442 65.112 167.954 65.112ZM196.984 69.648C194.284 69.648 191.998 69.234 190.126 68.406C188.29 67.578 186.868 66.444 185.86 65.004C184.852 63.528 184.276 61.836 184.132 59.928L190.018 59.658C190.306 61.242 190.99 62.502 192.07 63.438C193.15 64.374 194.788 64.842 196.984 64.842C198.784 64.842 200.206 64.554 201.25 63.978C202.294 63.402 202.816 62.484 202.816 61.224C202.816 60.54 202.636 59.964 202.276 59.496C201.952 58.992 201.304 58.578 200.332 58.254C199.36 57.894 197.92 57.552 196.012 57.228C193.168 56.688 190.936 56.058 189.316 55.338C187.696 54.618 186.544 53.7 185.86 52.584C185.176 51.468 184.834 50.118 184.834 48.534C184.834 45.906 185.806 43.764 187.75 42.108C189.73 40.452 192.574 39.624 196.282 39.624C198.766 39.624 200.854 40.056 202.546 40.92C204.238 41.748 205.552 42.882 206.488 44.322C207.46 45.726 208.072 47.31 208.324 49.074L202.438 49.398C202.258 48.39 201.898 47.526 201.358 46.806C200.854 46.05 200.17 45.474 199.306 45.078C198.442 44.646 197.416 44.43 196.228 44.43C194.392 44.43 193.024 44.79 192.124 45.51C191.224 46.23 190.774 47.166 190.774 48.318C190.774 49.182 190.972 49.884 191.368 50.424C191.8 50.964 192.484 51.414 193.42 51.774C194.356 52.098 195.598 52.386 197.146 52.638C200.134 53.142 202.474 53.772 204.166 54.528C205.858 55.248 207.046 56.148 207.73 57.228C208.414 58.308 208.756 59.622 208.756 61.17C208.756 62.97 208.252 64.5 207.244 65.76C206.236 67.02 204.85 67.992 203.086 68.676C201.322 69.324 199.288 69.648 196.984 69.648ZM211.309 69V30.66H217.033V46.752L216.331 46.644C216.655 45.024 217.249 43.71 218.113 42.702C218.977 41.658 220.039 40.884 221.299 40.38C222.559 39.876 223.945 39.624 225.457 39.624C227.545 39.624 229.309 40.092 230.749 41.028C232.189 41.928 233.269 43.206 233.989 44.862C234.745 46.518 235.123 48.408 235.123 50.532V69H229.399V52.044C229.399 49.452 228.949 47.544 228.049 46.32C227.185 45.06 225.817 44.43 223.945 44.43C221.857 44.43 220.183 45.096 218.923 46.428C217.663 47.724 217.033 49.632 217.033 52.152V69H211.309ZM238.971 69V40.272H244.209L244.371 47.4L243.723 47.184C244.047 45.6 244.605 44.25 245.397 43.134C246.225 42.018 247.233 41.154 248.421 40.542C249.609 39.93 250.905 39.624 252.309 39.624C254.757 39.624 256.755 40.326 258.303 41.73C259.851 43.098 260.823 44.988 261.219 47.4H260.301C260.625 45.708 261.165 44.304 261.921 43.188C262.713 42.036 263.721 41.154 264.945 40.542C266.169 39.93 267.555 39.624 269.103 39.624C271.119 39.624 272.829 40.056 274.233 40.92C275.673 41.748 276.753 42.972 277.473 44.592C278.229 46.212 278.607 48.192 278.607 50.532V69H272.883V51.936C272.883 49.452 272.433 47.58 271.533 46.32C270.633 45.06 269.265 44.43 267.429 44.43C266.241 44.43 265.197 44.736 264.297 45.348C263.397 45.96 262.695 46.842 262.191 47.994C261.723 49.146 261.489 50.532 261.489 52.152V69H256.035V52.152C256.035 49.704 255.621 47.814 254.793 46.482C254.001 45.114 252.633 44.43 250.689 44.43C249.465 44.43 248.403 44.736 247.503 45.348C246.639 45.96 245.955 46.86 245.451 48.048C244.947 49.2 244.695 50.568 244.695 52.152V69H238.971ZM294.701 69.648C291.893 69.648 289.463 69.036 287.411 67.812C285.395 66.588 283.829 64.842 282.713 62.574C281.633 60.306 281.093 57.66 281.093 54.636C281.093 51.612 281.633 48.984 282.713 46.752C283.829 44.484 285.395 42.738 287.411 41.514C289.427 40.254 291.803 39.624 294.539 39.624C297.131 39.624 299.417 40.236 301.397 41.46C303.377 42.648 304.907 44.376 305.987 46.644C307.103 48.912 307.661 51.648 307.661 54.852V56.31H287.033C287.177 59.118 287.915 61.224 289.247 62.628C290.615 64.032 292.451 64.734 294.755 64.734C296.447 64.734 297.851 64.338 298.967 63.546C300.083 62.754 300.857 61.692 301.289 60.36L307.229 60.738C306.473 63.402 304.979 65.562 302.747 67.218C300.551 68.838 297.869 69.648 294.701 69.648ZM287.033 51.99H301.613C301.433 49.434 300.695 47.544 299.399 46.32C298.139 45.096 296.519 44.484 294.539 44.484C292.487 44.484 290.795 45.132 289.463 46.428C288.167 47.688 287.357 49.542 287.033 51.99ZM310.221 69V40.272H315.459L315.675 47.886L315.189 47.724C315.585 45.132 316.377 43.242 317.565 42.054C318.789 40.866 320.427 40.272 322.479 40.272H325.233V45.402H322.479C321.039 45.402 319.833 45.636 318.861 46.104C317.889 46.572 317.151 47.292 316.647 48.264C316.179 49.236 315.945 50.496 315.945 52.044V69H310.221ZM337.897 69.648C335.089 69.648 332.659 69.036 330.607 67.812C328.591 66.588 327.025 64.842 325.909 62.574C324.829 60.306 324.289 57.66 324.289 54.636C324.289 51.612 324.829 48.984 325.909 46.752C327.025 44.484 328.591 42.738 330.607 41.514C332.623 40.254 334.999 39.624 337.735 39.624C340.327 39.624 342.613 40.236 344.593 41.46C346.573 42.648 348.103 44.376 349.183 46.644C350.299 48.912 350.857 51.648 350.857 54.852V56.31H330.229C330.373 59.118 331.111 61.224 332.443 62.628C333.811 64.032 335.647 64.734 337.951 64.734C339.643 64.734 341.047 64.338 342.163 63.546C343.279 62.754 344.053 61.692 344.485 60.36L350.425 60.738C349.669 63.402 348.175 65.562 345.943 67.218C343.747 68.838 341.065 69.648 337.897 69.648ZM330.229 51.99H344.809C344.629 49.434 343.891 47.544 342.595 46.32C341.335 45.096 339.715 44.484 337.735 44.484C335.683 44.484 333.991 45.132 332.659 46.428C331.363 47.688 330.553 49.542 330.229 51.99Z" fill="#111111"/>
</svg>
